HIERARCHY
ROOT Hips
{
	OFFSET -0.001795 -0.223333 0.028219
	CHANNELS 6 Xposition Yposition Zposition Zrotation Yrotation Xrotation 
	JOINT LeftUpLeg
	{
		OFFSET 0.069520 -0.091406 -0.006815
		CHANNELS 3 Zrotation Yrotation Xrotation
		JOINT LeftLeg
		{
			OFFSET 0.034277 -0.375199 -0.004496
			CHANNELS 3 Zrotation Yrotation Xrotation
			JOINT LeftFoot
			{
				OFFSET -0.013596 -0.397961 -0.043693
				CHANNELS 3 Zrotation Yrotation Xrotation
				JOINT LeftToe
				{
					OFFSET 0.026358 -0.055791 0.119288
					CHANNELS 3 Zrotation Yrotation Xrotation
					End Site
					{
						OFFSET 0.000000 0.000000 0.000000
					}
				}
			}
		}
	}
	JOINT RightUpLeg
	{
		OFFSET -0.067670 -0.090522 -0.004320
		CHANNELS 3 Zrotation Yrotation Xrotation
		JOINT RightLeg
		{
			OFFSET -0.038290 -0.382569 -0.008850
			CHANNELS 3 Zrotation Yrotation Xrotation
			JOINT RightFoot
			{
				OFFSET 0.015774 -0.398415 -0.042312
				CHANNELS 3 Zrotation Yrotation Xrotation
				JOINT RightToe
				{
					OFFSET -0.025372 -0.048144 0.123348
					CHANNELS 3 Zrotation Yrotation Xrotation
					End Site
					{
						OFFSET 0.000000 0.000000 0.000000
					}
				}
			}
		}
	}
	JOINT Spine
	{
		OFFSET -0.002533 0.108963 -0.026696
		CHANNELS 3 Zrotation Yrotation Xrotation
		JOINT Spine1
		{
			OFFSET 0.005487 0.135180 0.001092
			CHANNELS 3 Zrotation Yrotation Xrotation
			JOINT Spine2
			{
				OFFSET 0.001457 0.052922 0.025425
				CHANNELS 3 Zrotation Yrotation Xrotation
				JOINT Neck
				{
					OFFSET -0.002778 0.213870 -0.042857
					CHANNELS 3 Zrotation Yrotation Xrotation
					JOINT Head
					{
						OFFSET 0.005152 0.064970 0.051349
						CHANNELS 3 Zrotation Yrotation Xrotation
						End Site
						{
							OFFSET 0.000000 0.000000 0.000000
						}
					}
				}
				JOINT LeftShoulder
				{
					OFFSET 0.078845 0.121749 -0.034090
					CHANNELS 3 Zrotation Yrotation Xrotation
					JOINT LeftArm
					{
						OFFSET 0.090977 0.030469 -0.008868
						CHANNELS 3 Zrotation Yrotation Xrotation
						JOINT LeftForeArm
						{
							OFFSET 0.259612 -0.012772 -0.027456
							CHANNELS 3 Zrotation Yrotation Xrotation
							JOINT LeftHand
							{
								OFFSET 0.249234 0.008986 -0.001171
								CHANNELS 3 Zrotation Yrotation Xrotation
								End Site
								{
									OFFSET 0.000000 0.000000 0.000000
								}
							}
						}
					}
				}
				JOINT RightShoulder
				{
					OFFSET -0.081759 0.118833 -0.038615
					CHANNELS 3 Zrotation Yrotation Xrotation
					JOINT RightArm
					{
						OFFSET -0.096012 0.032551 -0.009143
						CHANNELS 3 Zrotation Yrotation Xrotation
						JOINT RightForeArm
						{
							OFFSET -0.253742 -0.013329 -0.021401
							CHANNELS 3 Zrotation Yrotation Xrotation
							JOINT RightHand
							{
								OFFSET -0.255298 0.007772 -0.005559
								CHANNELS 3 Zrotation Yrotation Xrotation
								End Site
								{
									OFFSET 0.000000 0.000000 0.000000
								}
							}
						}
					}
				}
			}
		}
	}
}
MOTION
Frames: 11
Frame Time: 0.050000
-0.022278 0.885879 -0.152376 -7.645746 -0.346014 25.395568 14.272260 1.696066 -49.977405 -6.534770 1.861548 31.844961 5.375137 12.580075 3.966349 0.000000 0.000000 0.000000 -6.019113 3.183959 -49.677413 7.983247 -1.804024 30.967389 -1.917339 -7.780478 7.149941 0.000000 0.000000 0.000000 -8.527334 2.561787 48.353941 5.791801 -0.428289 -25.816862 3.776272 -6.586938 29.355331 -9.611197 4.692358 -42.082638 0.000000 0.000000 0.000000 21.484324 -10.059746 1.610011 -1.049650 -55.020519 -2.186369 27.872488 -20.355325 -3.665792 0.000000 0.000000 0.000000 -22.320259 17.612720 4.654179 17.352520 63.742122 1.666309 -33.480421 23.412166 -5.568870 0.000000 0.000000 0.000000 
-0.033240 0.880612 -0.159077 -7.482164 -0.275579 26.579344 15.242469 2.231620 -52.011806 -7.079846 2.126399 32.442935 5.443564 12.782410 4.030574 0.000000 0.000000 0.000000 -6.131122 3.284277 -52.150756 8.682763 -2.140521 32.113839 -2.228509 -8.278201 6.317134 0.000000 0.000000 0.000000 -8.358960 2.504089 48.913627 5.485405 -0.366322 -25.742263 4.568430 -6.038613 28.739947 -9.798745 4.793442 -41.661885 0.000000 0.000000 0.000000 22.960904 -9.641036 1.534016 2.913153 -55.709742 -3.961128 28.449350 -17.814471 -3.282599 0.000000 0.000000 0.000000 -26.886760 16.862920 4.108553 3.863793 66.134165 -5.762837 -31.163499 15.601391 -3.220833 0.000000 0.000000 0.000000 
-0.045364 0.875990 -0.164198 -7.242027 -0.289947 26.997885 16.131459 2.719105 -53.186246 -7.582507 2.393188 33.204101 5.481428 12.894007 4.187099 0.000000 0.000000 0.000000 -6.408088 3.254988 -53.665187 9.875883 -2.687543 33.139561 -2.496373 -8.654123 5.411399 0.000000 0.000000 0.000000 -8.131697 2.428672 49.945569 4.900582 -0.208207 -26.427706 5.279833 -5.085575 28.682222 -9.209123 4.677522 -41.779384 0.000000 0.000000 0.000000 24.076414 -8.743528 1.449618 4.858427 -56.994354 -5.098097 29.942903 -17.266662 -3.422459 0.000000 0.000000 0.000000 -30.548568 15.700678 3.498520 -5.831685 66.599065 -11.138044 -29.001106 10.365753 -1.796818 0.000000 0.000000 0.000000 
-0.058377 0.871231 -0.167981 -6.824713 0.098714 26.813209 17.045220 3.038812 -53.748080 -8.314253 2.718271 33.930317 5.390535 12.747412 4.160142 0.000000 0.000000 0.000000 -6.403574 3.172085 -54.479063 10.627671 -3.137128 34.415278 -2.882086 -9.163556 4.078030 0.000000 0.000000 0.000000 -8.059839 2.303663 51.001672 4.893428 -0.196937 -26.485896 5.986531 -3.940152 28.163843 -9.544445 4.946121 -41.274838 0.000000 0.000000 0.000000 24.056086 -8.831146 1.704484 8.139401 -57.867866 -7.117852 30.351206 -15.825553 -3.243266 0.000000 0.000000 0.000000 -33.286094 15.537679 2.954532 -10.674336 64.976091 -12.904107 -27.590633 7.652489 -1.136993 0.000000 0.000000 0.000000 
-0.071873 0.866841 -0.171370 -6.171902 0.286904 26.899636 17.741410 3.321575 -54.428625 -9.015569 3.041453 34.448174 5.332648 12.709764 4.470805 0.000000 0.000000 0.000000 -6.572366 3.060331 -55.539475 11.256095 -3.539243 35.628335 -3.190346 -9.573640 2.847866 0.000000 0.000000 0.000000 -7.849019 2.135577 51.638028 4.628743 -0.134223 -26.674135 6.720362 -3.165931 28.309221 -9.159233 4.954046 -40.245995 0.000000 0.000000 0.000000 24.156625 -8.433250 1.789822 9.723966 -58.280473 -8.214103 31.749116 -15.739198 -3.450396 0.000000 0.000000 0.000000 -36.178020 15.174863 2.424540 -14.226103 63.283231 -13.946452 -27.342381 6.437800 -0.898337 0.000000 0.000000 0.000000 
-0.085543 0.862996 -0.175196 -5.749377 0.840347 26.589757 18.329796 3.470354 -55.135922 -9.098384 3.095747 35.510195 5.051913 12.296268 5.095847 0.000000 0.000000 0.000000 -6.093605 3.133224 -56.442738 11.302388 -3.759779 37.339966 -3.511538 -10.104639 2.007291 0.000000 0.000000 0.000000 -7.624165 1.845202 52.203505 4.482364 -0.117300 -26.472409 7.318650 -2.540135 28.235254 -9.322781 5.144752 -39.500718 0.000000 0.000000 0.000000 24.509253 -7.846810 1.801744 11.851794 -59.174852 -9.665420 32.018469 -14.612260 -3.266885 0.000000 0.000000 0.000000 -38.097083 15.163178 2.007593 -15.477809 61.234052 -13.549648 -26.621057 5.667126 -0.730942 0.000000 0.000000 0.000000 
-0.098347 0.859911 -0.179810 -5.282341 1.169998 26.435685 18.639950 3.562366 -55.929548 -8.894004 3.028768 36.423822 4.783404 11.959775 6.017873 0.000000 0.000000 0.000000 -5.698666 3.206154 -56.826678 11.312972 -3.843902 37.822881 -3.780983 -10.459081 0.770598 0.000000 0.000000 0.000000 -7.235810 1.519524 52.737898 4.037333 0.002216 -27.069422 7.676486 -2.137038 28.812385 -9.430601 5.293659 -38.943688 0.000000 0.000000 0.000000 24.944896 -8.141091 1.897165 13.776266 -59.055901 -10.773098 32.131886 -13.753831 -3.135446 0.000000 0.000000 0.000000 -38.889558 15.557194 1.721850 -16.637361 59.940273 -13.488388 -26.180188 4.603462 -0.505420 0.000000 0.000000 0.000000 
-0.109162 0.857295 -0.184852 -4.759921 2.169616 26.198450 18.836478 3.374140 -56.789487 -8.730517 2.880053 37.093258 4.310784 11.311846 6.905165 0.000000 0.000000 0.000000 -5.593313 2.941378 -57.090600 11.588711 -4.146469 38.235433 -4.163583 -11.184408 -0.058170 0.000000 0.000000 0.000000 -6.647290 0.866474 53.288521 3.702348 0.075613 -27.252039 8.082188 -2.110350 29.227771 -10.292096 5.734796 -38.080012 0.000000 0.000000 0.000000 25.249013 -8.157524 1.918644 16.966316 -58.813596 -12.417248 31.811067 -12.021725 -2.726696 0.000000 0.000000 0.000000 -40.035055 16.436546 1.433526 -16.708773 57.235658 -12.493060 -25.451823 4.106262 -0.408297 0.000000 0.000000 0.000000 
-0.116869 0.855441 -0.189617 -4.431018 2.287216 25.933437 19.053532 3.451445 -57.116152 -8.774131 2.907382 37.464933 4.137808 11.120389 7.595795 0.000000 0.000000 0.000000 -5.279308 3.044507 -57.480002 11.355862 -4.100964 38.868281 -4.263734 -11.332941 -0.469850 0.000000 0.000000 0.000000 -6.121858 0.510527 53.957787 3.244413 0.156004 -27.241468 8.295272 -1.835142 29.644645 -10.525136 5.958735 -36.978256 0.000000 0.000000 0.000000 26.732432 -7.883956 1.822742 19.893706 -58.273904 -13.732589 31.224007 -10.405665 -2.337970 0.000000 0.000000 0.000000 -41.273698 16.236717 1.150753 -18.168336 55.111569 -12.371677 -23.863701 3.163122 -0.220675 0.000000 0.000000 0.000000 
-0.120995 0.854279 -0.193539 -3.922793 2.511004 25.590646 18.824917 3.203554 -56.808445 -8.759093 2.823007 36.934311 4.073140 10.993819 7.445484 0.000000 0.000000 0.000000 -5.280457 2.930262 -57.204612 11.044249 -3.982300 38.772912 -4.394197 -11.468911 -1.307632 0.000000 0.000000 0.000000 -5.754098 0.196588 54.507191 3.342291 0.136142 -27.254728 8.549424 -1.376207 30.085078 -10.983716 6.269370 -36.528353 0.000000 0.000000 0.000000 27.473954 -7.754445 1.824926 23.848423 -58.080421 -15.802926 29.974844 -7.685678 -1.667685 0.000000 0.000000 0.000000 -42.734342 16.355387 0.743047 -18.286516 52.542730 -11.371915 -22.947511 2.610525 -0.111185 0.000000 0.000000 0.000000 
-0.121999 0.854472 -0.196083 -3.629465 2.755731 25.518699 18.433252 2.907945 -56.730684 -8.435055 2.607813 36.467643 3.983256 10.854971 7.431349 0.000000 0.000000 0.000000 -5.303165 2.834061 -57.364829 10.691784 -3.866589 38.992971 -4.428609 -11.570321 -1.154490 0.000000 0.000000 0.000000 -4.934359 -0.388812 54.866931 3.300775 0.143945 -27.239103 8.608177 -1.109492 30.072419 -10.772524 6.307835 -35.330275 0.000000 0.000000 0.000000 28.035768 -7.432840 1.805634 27.060949 -57.988123 -17.439709 28.989361 -6.023688 -1.268183 0.000000 0.000000 0.000000 -43.732308 16.286246 0.554670 -18.626443 50.854331 -10.875293 -21.963804 3.050010 -0.177742 0.000000 0.000000 0.000000 
